<!--<svg xmlns="http://www.w3.org/2000/svg" viewBox="0 0 511.999 511.999" fill="red"><g transform="matrix(-1 -1.22465e-16 1.22465e-16 -1 511.999 511.999)"><g>
	<g>
		<path d="M83.578,167.256H16.716C7.524,167.256,0,174.742,0,183.971v300.881c0,9.225,7.491,16.713,16.716,16.713h66.862    c9.225,0,16.716-7.489,16.716-16.713V183.971C100.294,174.742,92.769,167.256,83.578,167.256z" data-original="#000000" class="active-path"/>
	</g>
</g><g>
	<g>
		<path d="M470.266,167.256c-2.692-0.456-128.739,0-128.739,0l17.606-48.032c12.148-33.174,4.283-83.827-29.424-101.835    c-10.975-5.864-26.309-8.809-38.672-5.697c-7.09,1.784-13.321,6.478-17.035,12.767c-4.271,7.233-3.83,15.676-5.351,23.696    c-3.857,20.342-13.469,39.683-28.354,54.2c-25.952,25.311-106.571,98.331-106.571,98.331v267.45h278.593    c37.592,0.022,62.228-41.958,43.687-74.749c22.101-14.155,29.66-43.97,16.716-66.862c22.102-14.155,29.66-43.97,16.716-66.862    C527.572,235.24,514.823,174.792,470.266,167.256z" data-original="#000000" class="active-path"/>
	</g>
</g></g> </svg>-->

<svg xmlns="http://www.w3.org/2000/svg" width="512px" height="512px" viewBox="0 0 451.847 451.847" fill="red">
<g>
	<path d="M225.923,354.706c-8.098,0-16.195-3.092-22.369-9.263L9.27,151.157c-12.359-12.359-12.359-32.397,0-44.751   c12.354-12.354,32.388-12.354,44.748,0l171.905,171.915l171.906-171.909c12.359-12.354,32.391-12.354,44.744,0   c12.365,12.354,12.365,32.392,0,44.751L248.292,345.449C242.115,351.621,234.018,354.706,225.923,354.706z"/>
</g>
</svg>