<svg xmlns="http://www.w3.org/2000/svg" viewBox="0 0 1000 1000" xml:space="preserve" fill="#136aaf">
<g><g transform="translate(0.000000,511.000000) scale(0.100000,-0.100000)"><path d="M4814.7,4953.1c-49-31.4-105.9-82.4-129.5-113.8c-49-68.7-82.4-198.2-68.7-266.8c5.9-27.5,0-54.9-11.8-60.8c-35.3-23.5-25.5-111.8,25.5-217.8c25.5-53,58.9-127.5,70.6-162.8c62.8-162.9,259-239.4,419.9-160.9c72.6,33.4,98.1,62.8,143.2,153c29.4,60.8,62.8,121.6,76.5,131.5c43.1,37.3,60.8,139.3,53,313.9c-9.8,198.2-33.3,278.6-84.4,294.3c-19.6,5.9-41.2,23.5-47.1,39.2c-17.7,49-160.9,107.9-262.9,107.9C4928.5,5010,4881.4,4996.3,4814.7,4953.1z"/><path d="M4632.2,3919.1c-43.2-25.5-133.4-64.7-198.2-86.3c-176.6-58.9-194.2-86.3-194.2-292.3v-168.7l94.2-47.1c345.3-170.7,896.6-178.5,1279.2-19.6l143.2,58.9l7.9,105.9c2,56.9,0,137.3-5.9,174.6c-13.8,78.5-84.4,168.7-135.4,168.7c-17.7,0-102,35.3-190.3,76.5l-157,76.5l-74.6-239.4c-41.2-129.5-80.4-245.2-88.3-253.1c-7.8-7.9-25.5,25.5-39.2,74.5c-21.6,78.5-21.6,100.1,5.9,158.9c41.2,82.4,41.2,76.5,2,113.8c-39.2,41.2-133.4,41.2-166.8,0c-19.6-25.5-19.6-41.2,2-92.2c31.4-76.5,31.4-143.2,0-219.7c-23.5-56.9-25.5-53-109.9,194.2c-47.1,139.3-88.3,255.1-90.2,259C4712.7,3964.3,4675.4,3946.6,4632.2,3919.1z"/><path d="M4930.5,2897c-21.6-21.6-15.7-94.2,9.8-119.7c58.9-58.9,147.1,0,125.6,84.4c-9.8,37.3-25.5,49.1-68.7,49.1C4967.7,2910.7,4936.3,2904.8,4930.5,2897z"/><path d="M4924.6,2628.2c-17.7-45.1-2-94.2,37.3-117.7c49-31.4,102,7.8,102,78.5c0,49-7.8,56.9-64.7,62.8C4956,2655.6,4932.4,2647.8,4924.6,2628.2z"/><path d="M1448,2437.9c-151.1-74.6-259-257-231.5-392.4c5.9-31.4,2-60.8-7.8-66.7c-31.4-19.6-21.6-129.5,19.6-219.7c21.6-47.1,56.9-123.6,80.4-172.7c66.7-143.2,231.5-215.8,376.7-168.7c84.4,29.4,188.3,139.3,204.1,219.7c5.9,31.4,17.7,56.9,27.5,56.9c37.3,0,109.9,213.9,82.4,241.3c-5.9,7.9-11.8,84.4-13.7,170.7l-2,160.9l-88.3,76.5C1734.4,2486.9,1603,2514.4,1448,2437.9z"/><path d="M8291.3,2465.3c-74.6-25.5-184.4-117.7-227.6-192.3c-33.3-58.9-47.1-111.8-47.1-182.5c0-54.9-7.9-106-19.6-111.8c-33.3-21.6-21.6-117.7,25.5-208c25.5-47.1,53-109.9,58.9-139.3c19.6-72.6,107.9-172.6,184.4-204c172.6-72.6,339.4,9.8,417.9,208c9.8,27.5,39.2,74.6,62.8,104c41.2,51,45.1,72.6,39.2,264.9c-3.9,225.6-27.5,310-82.4,327.7c-19.6,5.9-41.2,23.5-47.1,39.2C8628.8,2443.8,8399.2,2504.6,8291.3,2465.3z"/><path d="M4948.1,2394.7c-74.6-53,3.9-186.4,82.4-139.3c47.1,31.4,55,107.9,11.8,139.3c-19.6,13.7-41.2,25.5-47.1,25.5C4989.3,2420.2,4967.7,2408.4,4948.1,2394.7z"/><path d="M4948.1,2139.7c-74.6-53,3.9-186.4,82.4-139.3c47.1,31.4,55,107.9,11.8,139.3c-19.6,13.7-41.2,25.5-47.1,25.5C4989.3,2165.2,4967.7,2153.4,4948.1,2139.7z"/><path d="M4940.3,1886.6c-66.7-66.7,11.8-176.6,94.2-133.4c68.7,37.3,39.2,157-39.2,157C4977.5,1910.1,4954,1900.3,4940.3,1886.6z"/><path d="M4940.3,1631.5c-66.7-66.7,11.8-176.6,94.2-133.4c68.7,37.3,39.2,157-39.2,157C4977.5,1655,4954,1645.2,4940.3,1631.5z"/><path d="M2546.7,1474.5c-56.9-56.9-5.9-141.3,78.5-129.5c37.3,3.9,45.1,17.7,45.1,74.6c0,58.9-7.8,68.7-49,74.6C2593.8,1498.1,2560.4,1488.3,2546.7,1474.5z"/><path d="M7310.3,1460.8c-31.4-60.8,7.8-123.6,72.6-115.8c66.7,7.8,102,62.8,72.6,109.9C7424.1,1505.9,7337.8,1509.9,7310.3,1460.8z"/><path d="M1238,1388.2c-43.2-25.5-133.4-64.7-200.1-88.3c-174.6-56.9-202.1-100.1-202.1-302.1V836.9l113.8-51c178.5-78.5,331.6-111.8,572.9-123.6c266.8-13.7,529.7,31.4,718.1,121.6l115.8,56.9v168.7c0,202.1-19.6,233.5-174.6,284.5c-54.9,17.7-145.2,56.9-202.1,88.3l-102,54.9l-80.4-253.1c-43.2-141.3-82.4-255.1-86.3-255.1c-3.9,0-21.6,37.3-37.3,84.4c-23.5,72.6-23.5,92.2-2,133.4c35.3,64.7,33.3,149.1-3.9,162.8c-129.5,49.1-211.9-49-133.4-162.8c29.4-41.2,29.4-51-2-131.5c-17.7-49.1-37.3-86.3-41.2-82.4c-2,3.9-39.2,115.8-82.4,247.2c-41.2,131.5-78.5,241.3-84.4,245.2C1320.4,1429.4,1281.2,1411.8,1238,1388.2z"/><path d="M8597.4,1197.9c-41.2-131.5-80.4-247.2-90.2-255.1c-7.9-7.9-25.5,21.6-37.3,68.7c-19.6,70.6-19.6,96.1,5.9,156.9c37.3,84.4,25.5,129.5-37.3,145.2c-119.7,29.4-172.6-33.4-121.7-141.3c29.4-58.9,31.4-82.4,11.8-143.2c-11.8-39.2-27.5-76.5-35.3-84.4c-5.9-7.8-47.1,96.1-88.3,229.6c-43.2,135.4-84.4,245.2-94.2,245.2c-9.8,0-66.7-25.5-129.5-56.9c-62.8-31.4-151.1-66.7-196.2-80.4c-123.6-33.4-162.8-105.9-157-294.3l5.9-147.1l115.8-56.9c349.2-168.7,910.3-168.7,1289,2l111.8,49l13.7,104c13.7,119.7-13.7,243.3-62.8,290.4c-19.6,15.7-88.3,49-153,74.6c-64.7,23.5-153,62.8-198.2,88.3l-80.4,47.1L8597.4,1197.9z"/><path d="M2758.6,1343.1c-31.4-60.8,7.8-123.6,72.6-115.8c66.7,7.8,102,62.8,72.6,109.9C2872.3,1388.2,2786,1392.1,2758.6,1343.1z"/><path d="M7082.7,1331.3c-15.7-60.8,19.6-107.9,84.4-107.9c29.4,0,53,15.7,62.8,45.1c25.5,62.8-7.9,111.8-76.5,111.8C7108.2,1380.4,7092.5,1370.6,7082.7,1331.3z"/><path d="M3029.3,1266.6c-45.1-9.8-66.7-94.2-35.3-131.5c35.3-41.2,90.3-35.3,125.6,13.7C3166.6,1215.6,3111.7,1286.2,3029.3,1266.6z"/><path d="M6876.7,1241.1c-35.3-35.3-37.3-45.1-11.8-82.4c33.3-51,84.4-64.7,121.7-33.4c37.3,31.4,37.3,88.3-2,125.6C6945.4,1292.1,6925.8,1290.1,6876.7,1241.1z"/><path d="M3245.1,1143c-43.2-23.5-45.1-102-5.9-135.4c23.5-19.6,41.2-19.6,78.5-3.9c60.8,27.5,66.7,109.9,11.8,141.3C3284.4,1168.5,3286.3,1168.5,3245.1,1143z"/><path d="M6658.9,1143c-54.9-31.4-45.1-111.8,15.7-139.3c45.1-21.6,56.9-19.6,88.3,21.6c33.4,41.2,35.3,51,11.8,88.3C6741.3,1162.6,6706,1172.4,6658.9,1143z"/><path d="M4801,1037c-251.1-56.9-474.8-211.9-610.2-421.8c-198.2-310-190.3-747.5,19.6-1047.7l80.4-113.8l-41.2-64.7c-23.5-37.3-74.5-92.2-113.8-125.6c-60.8-51-68.7-62.8-43.2-80.4c43.2-31.4,209.9-5.9,319.8,47.1l94.2,45.1l113.8-45.1c641.6-259,1322.4,192.3,1322.4,875c0,253.1-84.4,466.9-257,651.4C5462.1,995.8,5112.9,1107.7,4801,1037z M4669.5,191.4c17.7-15.7,31.4-54.9,31.4-86.3c0-31.4-13.7-70.6-31.4-86.3c-15.7-17.7-54.9-31.4-86.3-31.4c-31.4,0-70.6,13.7-86.3,31.4c-17.7,15.7-31.4,54.9-31.4,86.3c0,70.6,47.1,117.7,117.7,117.7C4614.6,222.8,4653.8,209.1,4669.5,191.4z M5081.5,191.4c17.7-15.7,31.4-54.9,31.4-86.3c0-70.6-47.1-117.7-117.7-117.7c-31.4,0-70.6,13.7-86.3,31.4c-17.7,15.7-31.4,54.9-31.4,86.3c0,70.6,47.1,117.7,117.7,117.7C5026.6,222.8,5065.8,209.1,5081.5,191.4z M5493.6,191.4c17.6-15.7,31.4-54.9,31.4-86.3c0-70.6-47.1-117.7-117.7-117.7c-70.6,0-117.7,47.1-117.7,117.7c0,31.4,13.7,70.6,31.4,86.3c15.7,17.7,54.9,31.4,86.3,31.4C5438.6,222.8,5477.9,209.1,5493.6,191.4z"/><path d="M3460.9,1025.3c-43.2-23.5-45.1-82.4-3.9-123.6c39.2-41.2,58.9-39.2,105.9,7.8c47.1,47.1,49,66.7,7.8,105.9C3535.5,1050.8,3508,1054.7,3460.9,1025.3z"/><path d="M6435.3,1031.1c-43.2-29.4-47.1-82.4-7.9-121.6c47.1-47.1,66.7-49,106-7.8C6607.9,976.2,6521.6,1092,6435.3,1031.1z"/><path d="M3680.7,901.7c-11.8-15.7-19.6-49-15.7-74.6c3.9-35.3,19.6-47.1,68.7-51c54.9-5.9,64.7,1.9,76.5,45.1C3831.8,909.5,3737.6,968.4,3680.7,901.7z"/><path d="M6192,899.7c-31.4-39.2-9.8-119.7,35.3-131.5c58.9-15.7,102,19.6,102,80.4C6329.3,927.2,6241.1,958.5,6192,899.7z"/><path d="M1448-485.4c-155-78.5-257-255-229.6-404.2c5.9-39.2,3.9-64.7-9.8-64.7c-56.9,0-3.9-188.3,115.8-412c74.6-143.2,268.8-196.2,414-115.7c70.6,39.2,157,158.9,157,215.8c0,15.7,15.7,37.3,37.3,51c39.2,23.5,90.2,190.3,68.7,225.6c-7.8,11.8-13.7,90.2-15.7,176.6l-2,157l-88.3,76.5C1734.4-436.4,1603-408.9,1448-485.4z"/><path d="M8261.9-477.6c-172.6-92.2-245.2-200.1-245.2-362.9c0-62.8-7.9-113.8-19.6-113.8c-35.3,0-21.6-104,27.5-206c25.5-53,58.9-127.5,70.6-162.8c51-135.4,209.9-219.7,363-192.3c82.4,15.7,200.1,125.5,217.8,204c7.9,29.4,29.4,70.6,51,94.2c56.9,62.8,70.6,145.2,60.8,333.5c-7.8,172.7-35.3,282.5-66.7,282.5c-7.9,0-41.2,23.6-70.6,51C8538.5-444.3,8377.6-414.8,8261.9-477.6z"/><path d="M3668.9-589.4c-5.9-15.7-7.8-49.1-3.9-74.6c3.9-35.3,17.7-45.1,62.8-45.1c70.6,0,109.9,53,78.5,104C3778.8-562,3684.6-550.2,3668.9-589.4z"/><path d="M6195.9-585.5c-58.9-58.9,0-147.1,82.4-125.6c53,13.7,74.6,68.7,47.1,117.7C6303.8-556.1,6229.3-552.1,6195.9-585.5z"/><path d="M3460.9-681.6c-43.2-23.6-45.1-102-5.9-135.4c37.3-31.4,88.3-17.7,121.6,33.4c25.5,37.3,23.5,47.1-11.8,82.4C3517.8-654.2,3508-652.2,3460.9-681.6z"/><path d="M6425.5-701.3c-35.3-35.3-37.3-45.2-11.8-82.4c33.4-51,84.4-64.7,121.7-33.4c37.3,31.4,37.3,88.3-2,125.6C6494.1-650.3,6474.5-652.2,6425.5-701.3z"/><path d="M3221.6-821c-53-74.5,23.5-158.9,104-113.8c53,27.5,54.9,109.8,3.9,137.3C3274.6-768,3254.9-771.9,3221.6-821z"/><path d="M6655-809.2c-47.1-45.2-39.2-104,17.7-129.5c43.2-19.6,56.9-17.6,92.2,19.6c39.2,39.3,39.2,43.2,7.8,90.3C6735.5-769.9,6698.2-764,6655-809.2z"/><path d="M2997.9-919.1c-68.7-68.7,29.4-194.2,104-133.4c58.9,49,23.5,157-49,157C3035.2-895.5,3011.7-905.3,2997.9-919.1z"/><path d="M6870.8-938.7c-53-74.6,23.5-158.9,104-113.8c53,27.5,54.9,109.9,3.9,137.3C6923.8-885.7,6904.2-889.6,6870.8-938.7z"/><path d="M2758.6-1050.5c-41.2-80.4,41.2-158.9,113.8-107.9c74.6,51,43.2,145.2-49,145.2C2799.8-1013.2,2770.3-1030.9,2758.6-1050.5z"/><path d="M7094.5-1042.7c-13.7-15.7-19.6-49-11.8-78.5c9.8-39.2,25.5-49,70.6-49c37.3,0,64.7,13.7,78.5,37.3c25.5,49,25.5,52.9-11.8,88.3C7180.8-1005.4,7125.9-1005.4,7094.5-1042.7z"/><path d="M2542.7-1160.4c-13.7-17.7-19.6-49-11.8-78.5c11.8-43.2,21.6-51,76.5-45.1c53,5.9,64.7,15.7,68.7,62.8C2686-1136.8,2595.7-1095.6,2542.7-1160.4z"/><path d="M7333.9-1148.6c-15.7-7.9-23.5-41.2-19.6-72.6c3.9-49.1,13.7-56.9,62.8-56.9c70.6,0,109.9,53,78.5,104C7430-1136.8,7371.1-1123.1,7333.9-1148.6z"/><path d="M4948.1-1293.8c-74.6-53,3.9-186.4,82.4-139.3c47.1,31.4,55,107.9,11.8,139.3c-19.6,13.7-41.2,25.5-47.1,25.5C4989.3-1268.3,4967.7-1280,4948.1-1293.8z"/><path d="M1251.8-1527.3c-37.3-23.5-127.5-64.7-204-92.2c-198.1-72.6-223.7-117.7-213.9-376.7l2-90.3l113.8-51c178.5-78.5,331.6-111.8,572.9-123.6c266.8-13.8,529.7,31.4,718.1,121.6l115.8,56.9v168.7c0,202.1-19.6,233.5-174.6,284.5c-54.9,17.7-145.2,56.9-202.1,88.3l-102,55l-80.4-253.1c-43.2-141.3-82.4-255.1-86.3-255.1c-3.9,0-21.6,37.3-37.3,84.4c-23.5,72.6-23.5,92.2-2,133.4c35.3,64.8,33.3,149.1-3.9,162.9c-131.4,51-206-39.2-133.4-160.9c27.5-49,27.5-60.8-5.9-139.3l-37.3-86.3l-82.4,259c-47.1,141.2-86.3,257-88.3,255.1C1318.5-1486,1287.1-1505.7,1251.8-1527.3z"/><path d="M8595.4-1731.3c-41.2-133.4-82.4-249.2-88.3-253.1c-7.9-5.9-25.5,27.5-37.3,74.6c-19.6,68.7-17.7,94.2,5.9,155c37.3,84.4,25.5,129.5-37.3,145.2c-119.7,29.4-172.6-33.3-121.7-141.2c29.4-58.9,31.4-82.4,11.8-143.2c-11.8-39.2-27.5-76.5-35.3-84.4c-5.9-7.9-47.1,96.1-88.3,229.6c-43.2,135.4-84.4,245.2-94.2,245.2c-9.8,0-66.7-25.5-129.5-56.9c-62.8-31.4-151.1-66.7-196.2-80.4c-123.6-33.4-162.8-106-157-294.3l5.9-147.1l115.8-56.9c349.2-168.7,910.3-168.7,1289,2l109.9,49.1l13.7,107.9c13.7,121.7-11.8,239.4-60.8,286.4c-19.6,15.7-88.3,49-153,74.6c-64.7,23.6-153,62.8-198.2,88.3l-80.4,47.1L8595.4-1731.3z"/><path d="M4952-1544.9c-86.3-49-5.9-182.5,82.4-135.4c51,27.5,51,109.8,2,137.3C4991.3-1519.4,4993.2-1519.4,4952-1544.9z"/><path d="M4940.3-1801.9c-66.7-66.7,11.8-176.6,94.2-133.4c68.7,37.3,39.2,157-39.2,157C4977.5-1778.4,4954-1788.2,4940.3-1801.9z"/><path d="M4936.3-2060.9c-11.8-15.7-19.6-49-15.7-74.6c3.9-37.3,17.7-45.1,74.6-45.1c56.9,0,70.6,7.9,74.6,45.1c7.9,54.9-27.5,102-74.6,102C4975.6-2033.4,4950.1-2047.2,4936.3-2060.9z"/><path d="M4940.3-2312c-66.7-66.7,11.8-176.6,94.2-133.4c68.7,37.3,39.2,157-39.2,157C4977.5-2288.5,4954-2298.3,4940.3-2312z"/><path d="M4936.3-2571c-11.8-15.7-19.6-49-15.7-74.6c3.9-37.3,17.7-45.1,74.6-45.1c56.9,0,70.6,7.9,74.6,45.1c7.9,54.9-27.5,102-74.6,102C4975.6-2543.6,4950.1-2557.3,4936.3-2571z"/><path d="M4824.5-3034c-137.3-78.5-208-196.2-206-345.3c0-60.8-7.9-106-19.6-106c-39.2,0-2-145.2,78.5-313.9c66.7-139.3,94.2-176.6,157-211.9c176.6-98.1,398.3-11.8,445.4,176.6c7.9,29.4,29.4,66.7,51,86.3c45.1,39.2,84.4,174.6,66.7,221.7c-7.8,17.6-11.8,96.1-9.8,174.6l2,145.2l-94.2,88.3C5124.7-2959.5,4995.2-2935.9,4824.5-3034z"/><path d="M4612.6-4075.8c-53-31.4-145.2-70.6-202.1-88.3c-147.1-43.2-182.5-106-176.6-302.1l5.9-145.2l78.5-45.1c166.8-92.2,368.8-133.4,676.9-133.4c298.2,0,410.1,19.6,643.5,111.8c106,43.2,111.8,49.1,127.5,133.4c35.3,174.6-51,372.8-160.9,372.8c-17.7,0-100.1,33.4-182.5,74.6l-153,74.6l-80.4-257l-82.4-255.1l-27.5,66.7c-35.3,84.4-35.3,113.8-3.9,194.2c43.1,106-37.3,176.6-137.3,121.6c-49-25.5-53-82.4-9.8-155c29.4-51,29.4-60.8-5.9-141.3l-37.3-86.3l-82.4,260.9c-47.1,141.3-86.3,259-88.3,257C4712.7-4018.9,4667.5-4044.5,4612.6-4075.8z"/></g></g>
</svg>